# xmcd
#
# Track frame offsets: 
#        150
#        28164
#        54135
#        82090
#        106895
#        129339
#        159521
#        179498
#        202918
#        223752
#        248982
#        272366
#        298058
#
# Disc length: 4318 seconds
#
# Revision: 0
# Processed by: cddbd v1.5.2PL0 Copyright (c) Steve Scherf et al.
# Submitted via: ExactAudioCopy v0.99pb5
#
DISCID=b710dc0d
DTITLE=Various Artist - Richard Sen Presents This Ain't Chicago - The Undergr
DTITLE=ound Sound Of Uk House and Acid 1987-1991 [CD 1)
DYEAR=2012
DGENRE=Acid
TTITLE0=Bang The Party - Bang Bang You're Mine (Full Vocal Remix)
TTITLE1=Window Smashers - Free To Be
TTITLE2=Julian Jonah - Jealousy And Lies
TTITLE3=Baby Ford - Crashing
TTITLE4=Man With No Name - From Within The Mind Of My 909
TTITLE5=Rio Rhythm Band - Cuba Jakkin'
TTITLE6=Playtime Toons - Shaker Song
TTITLE7=Jail Break - Mentality
TTITLE8=Exocet - Safety Zone
TTITLE9=Return Of The Living Acid - Twin Tub
TTITLE10=May - Love Me Baby (Garage House Mix)
TTITLE11=CXX - The Comfort Of Strangers (Mix By Rhythm Doctor)
TTITLE12=Julie Stapleton - Where's The Love Gone (Remix)
EXTD=
EXTT0=
EXTT1=
EXTT2=
EXTT3=
EXTT4=
EXTT5=
EXTT6=
EXTT7=
EXTT8=
EXTT9=
EXTT10=
EXTT11=
EXTT12=
PLAYORDER=
